<svg xmlns="http://www.w3.org/2000/svg" width="522" height="525" viewBox="0 0 522 525">
<g>
<path d="M 80.50 379.67 C79.79,381.74 78.76,383.58 78.21,383.76 C77.66,383.95 74.48,381.04 71.15,377.30 C36.14,338.07 19.81,301.94 18.28,260.28 C17.24,232.10 23.30,208.84 37.35,187.12 C42.81,178.68 55.06,165.63 63.40,159.36 C71.56,153.23 87.65,145.58 98.00,142.91 C109.99,139.83 134.78,139.09 148.59,141.42 C178.22,146.40 206.06,160.71 229.36,182.96 C237.87,191.08 253.00,209.26 253.00,211.35 C253.00,212.65 227.75,237.19 207.00,256.04 C200.68,261.78 195.05,267.04 194.50,267.71 C193.75,268.63 192.39,268.68 189.04,267.92 C177.82,265.35 166.21,271.77 160.87,283.50 C159.86,285.70 159.03,288.80 159.02,290.39 C159.00,292.80 155.03,297.31 134.75,317.91 C107.04,346.05 88.05,366.45 84.35,372.05 C82.94,374.17 81.21,377.60 80.50,379.67 ZM 166.85 76.63 C159.94,81.35 157.60,82.42 153.29,82.79 C148.54,83.20 147.82,82.98 145.04,80.20 C142.61,77.76 142.00,76.30 142.00,72.92 C142.00,69.25 142.56,68.16 146.21,64.69 C160.57,51.02 193.48,35.73 220.50,30.16 C268.11,20.34 320.65,30.54 359.50,57.14 C370.94,64.98 373.00,67.36 373.00,72.79 C373.00,77.25 371.58,79.65 367.79,81.61 C362.42,84.38 356.75,82.98 347.05,76.48 C328.00,63.72 305.77,54.94 282.50,50.98 C271.31,49.08 267.13,48.85 252.50,49.32 C240.76,49.69 232.41,50.52 225.50,51.99 C204.46,56.48 183.33,65.35 166.85,76.63 ZM 192.50 110.94 C185.20,115.87 180.69,116.30 176.15,112.47 C172.34,109.27 171.36,105.13 173.46,101.09 C176.64,94.93 199.97,81.19 216.00,76.03 C233.80,70.30 257.90,68.32 276.31,71.08 C302.34,74.97 335.46,91.03 339.98,101.96 C342.45,107.90 337.05,115.00 330.06,115.00 C327.32,115.00 324.14,113.57 317.47,109.34 C300.00,98.26 284.23,92.67 266.28,91.20 C255.02,90.27 251.52,90.39 238.80,92.07 C224.98,93.91 206.66,101.37 192.50,110.94 ZM 225.68 141.53 C218.44,145.84 213.10,146.19 209.50,142.59 C204.30,137.40 205.46,130.84 212.39,126.08 C229.41,114.41 251.48,109.67 271.35,113.43 C284.98,116.01 300.19,122.64 306.96,128.97 C311.13,132.86 311.18,137.98 307.08,142.08 C302.89,146.27 298.89,145.96 288.23,140.65 C275.13,134.12 268.44,132.64 254.82,133.25 C242.17,133.82 235.38,135.75 225.68,141.53 Z" fill="rgb(5,118,238)"/>
<path d="M 279.50 504.98 C264.71,512.39 259.73,513.66 252.50,511.90 C247.53,510.69 225.21,499.78 214.50,493.32 L 206.50 488.50 L 218.03 487.92 C227.27,487.46 230.99,486.80 236.82,484.57 C251.48,478.97 262.69,469.03 269.44,455.64 C275.47,443.68 277.09,432.06 274.92,416.32 C272.53,398.97 267.44,395.10 257.45,403.04 C249.16,409.63 244.35,406.72 215.50,377.63 C173.55,335.33 157.18,315.49 154.53,303.76 L 153.42 298.82 L 146.43 305.95 C156.67,295.32 159.01,292.24 159.02,290.39 C159.03,288.80 159.86,285.70 160.87,283.50 C161.07,283.07 161.27,282.64 161.49,282.22 C159.92,285.33 159.04,288.62 159.02,291.82 C159.02,292.07 159.01,292.30 159.01,292.52 C159.00,292.89 158.99,293.22 159.01,293.55 C159.21,297.20 162.82,300.65 205.85,344.15 C236.20,374.82 241.85,380.10 245.78,381.44 C257.92,385.58 259.55,384.51 288.21,353.71 C357.20,279.57 370.64,265.47 367.97,270.00 C367.16,271.38 366.50,273.62 366.50,275.00 C366.50,276.38 363.69,281.90 360.25,287.27 C356.81,292.65 354.00,297.93 354.00,299.01 C354.00,300.08 355.24,302.41 356.75,304.17 C362.64,311.03 406.56,355.00 407.50,354.99 C408.05,354.98 417.27,346.37 428.00,335.86 C438.73,325.35 450.20,315.05 453.50,312.96 C456.80,310.88 460.21,308.53 461.08,307.76 C463.24,305.82 466.00,304.86 466.00,306.03 C466.00,306.56 466.87,307.00 467.94,307.00 C469.01,307.00 470.16,307.45 470.50,308.00 C470.84,308.55 473.36,309.00 476.11,309.00 C480.76,309.00 481.18,308.79 482.15,306.00 C482.73,304.35 483.66,303.00 484.24,303.00 C485.77,303.00 487.93,306.20 487.96,308.50 C488.00,311.24 477.41,332.82 471.52,342.00 C455.33,367.24 430.25,394.71 397.99,422.55 C359.65,455.63 312.37,488.52 279.50,504.98 ZM 179.59 267.81 C182.67,267.18 185.87,267.19 189.04,267.92 C192.39,268.68 193.75,268.63 194.50,267.71 C195.05,267.04 200.68,261.78 207.00,256.04 C227.75,237.19 253.00,212.65 253.00,211.35 C253.00,210.64 251.27,208.10 248.66,204.73 C252.72,209.71 254.35,210.96 256.17,210.98 C257.63,210.99 259.02,211.55 259.24,212.22 C259.48,212.93 261.10,213.33 263.14,213.20 C266.11,213.00 267.08,213.52 269.65,216.73 C271.31,218.80 272.99,221.78 273.38,223.34 C273.96,225.69 274.33,225.97 275.54,224.97 C276.74,223.97 277.00,224.12 277.00,225.77 C277.00,228.00 278.79,228.99 282.83,229.02 C286.31,229.04 287.37,229.81 289.45,233.86 C291.98,238.82 298.75,245.78 304.76,249.62 C307.66,251.48 310.48,253.00 311.02,253.00 C311.56,253.00 312.91,253.91 314.02,255.02 C315.74,256.74 316.13,256.81 316.63,255.52 C316.95,254.69 317.64,254.00 318.15,254.00 C319.68,254.00 313.26,261.72 301.95,273.50 C288.94,287.06 274.43,302.35 262.18,315.42 L 252.89 325.34 L 225.70 298.26 C207.15,279.80 197.23,270.63 194.50,269.45 C192.15,268.44 187.79,267.70 183.94,267.66 C182.19,267.64 180.80,267.68 179.59,267.81 ZM 24.50 299.14 C23.07,294.47 21.86,289.76 20.85,285.00 C19.73,279.70 18.90,272.04 18.47,264.19 C19.18,276.21 21.16,287.79 24.50,299.14 ZM 82.65 374.95 C83.21,373.89 83.80,372.87 84.35,372.05 C86.28,369.13 92.39,362.16 101.74,352.15 C91.79,362.90 85.75,370.12 82.65,374.95 ZM 18.24 259.24 C17.94,250.65 18.13,242.38 18.92,237.28 C19.35,234.54 19.83,231.86 20.38,229.24 C18.61,238.66 17.91,248.60 18.24,259.24 ZM 70.80 154.57 C73.45,153.00 76.30,151.50 79.47,149.96 C85.52,147.03 90.62,144.96 95.89,143.50 C88.33,145.75 78.51,150.14 70.80,154.57 ZM 245.92 201.30 C241.79,196.23 236.54,190.25 232.18,185.77 C237.01,190.61 241.60,195.80 245.92,201.30 ZM 80.02 380.93 C80.01,381.02 80.01,381.11 80.01,381.19 C80.00,382.84 79.55,383.64 78.56,383.50 C78.98,383.05 79.53,382.08 80.02,380.93 ZM 71.15 377.30 C71.73,377.96 72.31,378.59 72.88,379.18 C69.90,376.14 65.89,371.45 60.65,364.96 C57.69,361.28 54.88,357.59 52.22,353.89 C57.79,361.61 64.09,369.39 71.15,377.30 ZM 43.08 179.46 C45.14,176.90 47.32,174.41 49.64,171.98 C52.15,169.36 54.49,167.04 56.79,164.96 C52.12,169.28 47.14,174.55 43.08,179.46 ZM 132.05 140.09 C138.62,140.12 143.27,140.52 148.59,141.42 C144.00,140.64 138.19,140.21 132.05,140.09 ZM 162.82 279.87 C165.08,276.29 167.97,273.37 171.25,271.25 C167.82,273.56 164.93,276.56 162.82,279.87 Z" fill="rgb(27,148,47)"/>
<path d="M 487.65 309.92 C487.86,309.27 487.97,308.78 487.96,308.50 C487.93,306.20 485.77,303.00 484.24,303.00 C483.66,303.00 482.73,304.35 482.15,306.00 C481.18,308.79 480.76,309.00 476.11,309.00 C473.36,309.00 470.84,308.55 470.50,308.00 C470.16,307.45 469.01,307.00 467.94,307.00 C466.87,307.00 466.00,306.56 466.00,306.03 C466.00,304.86 463.24,305.82 461.08,307.76 C460.21,308.53 456.80,310.88 453.50,312.96 C450.20,315.05 438.73,325.35 428.00,335.86 C417.27,346.37 408.05,354.98 407.50,354.99 C406.56,355.00 362.64,311.03 356.75,304.17 C355.24,302.41 354.00,300.08 354.00,299.01 C354.00,297.93 356.81,292.65 360.25,287.27 C363.69,281.90 366.50,276.38 366.50,275.00 C366.50,273.62 367.16,271.38 367.97,270.00 C370.36,265.93 359.77,276.89 307.62,332.87 C317.90,321.83 328.69,310.25 336.50,301.88 C372.60,263.17 373.00,262.63 373.00,253.17 C373.00,246.17 369.29,239.13 363.61,235.34 C357.88,231.52 348.90,230.90 342.69,233.91 C339.35,235.52 328.20,246.19 306.97,268.20 C315.10,259.46 319.44,254.00 318.15,254.00 C317.64,254.00 316.95,254.69 316.63,255.52 C316.13,256.81 315.74,256.74 314.02,255.02 C312.91,253.91 311.56,253.00 311.02,253.00 C310.48,253.00 307.66,251.48 304.76,249.62 C298.75,245.78 291.98,238.82 289.45,233.86 C287.37,229.81 286.31,229.04 282.83,229.02 C278.79,228.99 277.00,228.00 277.00,225.77 C277.00,224.12 276.74,223.97 275.54,224.97 C274.33,225.97 273.96,225.69 273.38,223.34 C272.99,221.78 271.31,218.80 269.65,216.73 C267.08,213.52 266.11,213.00 263.14,213.20 C261.10,213.33 259.48,212.93 259.24,212.22 C259.02,211.55 257.63,210.99 256.17,210.98 C255.68,210.98 255.21,210.88 254.70,210.65 C256.11,209.81 260.02,206.40 264.29,202.25 C290.46,176.82 306.19,164.94 327.50,154.55 C348.58,144.26 366.32,139.97 387.36,140.05 C407.13,140.13 420.46,143.10 436.50,150.99 C448.68,156.98 457.45,163.51 467.16,173.83 C480.58,188.09 490.57,207.68 495.23,228.83 C498.09,241.80 498.31,269.06 495.68,282.50 C493.87,291.70 491.19,300.87 487.65,309.92 ZM 457.18 362.03 C442.14,381.38 422.62,401.30 397.99,422.55 C421.90,401.92 441.85,381.50 457.18,362.03 ZM 247.76 382.09 C249.58,382.56 251.52,382.89 252.73,382.92 C254.64,382.97 256.24,382.86 257.97,382.23 C254.51,383.71 251.65,383.31 247.76,382.09 ZM 208.45 165.94 C190.09,153.33 169.80,144.98 148.59,141.42 C169.96,145.01 190.19,153.35 208.45,165.94 ZM 241.37 378.76 C236.50,374.91 227.41,365.93 205.87,344.16 C226.52,365.04 236.31,374.64 241.37,378.76 ZM 251.76 208.30 C250.90,207.41 249.89,206.24 248.66,204.73 C248.13,204.05 247.58,203.35 246.99,202.62 C248.81,204.85 250.48,206.84 251.76,208.30 ZM 478.78 329.14 C480.49,325.85 482.16,322.48 483.60,319.43 C483.10,320.52 482.59,321.60 482.07,322.68 C481.02,324.83 479.93,326.98 478.78,329.14 ZM 274.81 302.01 C270.80,306.26 266.60,310.73 262.20,315.42 L 252.89 325.34 L 262.18 315.42 C266.19,311.14 270.44,306.62 274.81,302.01 Z" fill="rgb(125,198,24)"/>
<path d="M 0.00 262.50 L 0.00 0.00 L 261.00 0.00 L 522.00 0.00 L 522.00 262.50 L 522.00 525.00 L 261.00 525.00 L 0.00 525.00 L 0.00 262.50 ZM 279.50 504.98 C312.37,488.52 359.65,455.63 397.99,422.55 C439.57,386.68 466.57,354.60 482.07,322.68 C488.45,309.52 493.02,296.05 495.68,282.50 C498.31,269.06 498.09,241.80 495.23,228.83 C490.57,207.68 480.58,188.09 467.16,173.83 C457.45,163.51 448.68,156.98 436.50,150.99 C420.46,143.10 407.13,140.13 387.36,140.05 C366.32,139.97 348.58,144.26 327.50,154.55 C306.19,164.94 290.46,176.82 264.29,202.25 C259.23,207.17 254.68,211.04 254.19,210.85 C253.70,210.66 249.69,206.00 245.28,200.50 C219.39,168.23 185.72,147.66 148.59,141.42 C141.05,140.15 134.83,139.87 122.59,140.24 C103.17,140.83 94.10,142.87 79.47,149.96 C67.20,155.91 59.73,161.42 49.64,171.98 C32.92,189.48 23.10,210.36 18.92,237.28 C17.26,248.00 18.26,272.77 20.85,285.00 C26.74,312.83 39.84,339.15 60.65,364.96 C74.78,382.48 79.98,386.84 80.01,381.19 C80.04,375.50 93.12,360.27 131.94,320.71 L 153.42 298.82 L 154.53 303.76 C157.18,315.49 173.55,335.33 215.50,377.63 C244.35,406.72 249.16,409.63 257.45,403.04 C267.44,395.10 272.53,398.97 274.92,416.32 C277.09,432.06 275.47,443.68 269.44,455.64 C262.69,469.03 251.48,478.97 236.82,484.57 C230.99,486.80 227.27,487.46 218.03,487.92 L 206.50 488.50 L 214.50 493.32 C225.21,499.78 247.53,510.69 252.50,511.90 C259.73,513.66 264.71,512.39 279.50,504.98 ZM 225.68 141.53 C235.38,135.75 242.17,133.82 254.82,133.25 C268.44,132.64 275.13,134.12 288.23,140.65 C298.89,145.96 302.89,146.27 307.08,142.08 C311.18,137.98 311.13,132.86 306.96,128.97 C300.19,122.64 284.98,116.01 271.35,113.43 C251.48,109.67 229.41,114.41 212.39,126.08 C205.46,130.84 204.30,137.40 209.50,142.59 C213.10,146.19 218.44,145.84 225.68,141.53 ZM 192.50 110.94 C206.66,101.37 224.98,93.91 238.80,92.07 C251.52,90.39 255.02,90.27 266.28,91.20 C284.23,92.67 300.00,98.26 317.47,109.34 C324.14,113.57 327.32,115.00 330.06,115.00 C337.05,115.00 342.45,107.90 339.98,101.96 C335.46,91.03 302.34,74.97 276.31,71.08 C257.90,68.32 233.80,70.30 216.00,76.03 C199.97,81.19 176.64,94.93 173.46,101.09 C171.36,105.13 172.34,109.27 176.15,112.47 C180.69,116.30 185.20,115.87 192.50,110.94 ZM 166.85 76.63 C183.33,65.35 204.46,56.48 225.50,51.99 C232.41,50.52 240.76,49.69 252.50,49.32 C267.13,48.85 271.31,49.08 282.50,50.98 C305.77,54.94 328.00,63.72 347.05,76.48 C356.75,82.98 362.42,84.38 367.79,81.61 C371.58,79.65 373.00,77.25 373.00,72.79 C373.00,67.36 370.94,64.98 359.50,57.14 C320.65,30.54 268.11,20.34 220.50,30.16 C193.48,35.73 160.57,51.02 146.21,64.69 C142.56,68.16 142.00,69.25 142.00,72.92 C142.00,76.30 142.61,77.76 145.04,80.20 C147.82,82.98 148.54,83.20 153.29,82.79 C157.60,82.42 159.94,81.35 166.85,76.63 ZM 245.37 381.38 C242.06,380.20 234.17,372.77 205.87,344.16 C156.54,294.30 159.00,297.04 159.02,291.82 C159.06,283.75 164.61,275.07 172.79,270.27 C176.56,268.07 178.55,267.60 183.94,267.66 C187.79,267.70 192.15,268.44 194.50,269.45 C197.23,270.63 207.15,279.80 225.70,298.26 L 252.89 325.34 L 262.20 315.42 C313.50,260.73 337.51,236.41 342.69,233.91 C348.90,230.90 357.88,231.52 363.61,235.34 C369.29,239.13 373.00,246.17 373.00,253.17 C373.00,262.63 372.60,263.17 336.50,301.88 C323.30,316.03 301.57,339.36 288.21,353.71 C262.90,380.91 260.23,383.10 252.73,382.92 C250.95,382.88 247.64,382.18 245.37,381.38 Z" fill="rgb(251,253,252)"/>
</g>
</svg>